<mxfile host="65bd71144e" scale="5" border="0">
    <diagram id="FA5ro3ld40a73iIA0jBC" name="第 1 页">
        <mxGraphModel dx="374" dy="433" grid="1" gridSize="10" guides="1" tooltips="1" connect="1" arrows="1" fold="1" page="1" pageScale="1" pageWidth="827" pageHeight="1169" math="0" shadow="0">
            <root>
                <mxCell id="0"/>
                <mxCell id="1" parent="0"/>
                <mxCell id="4" value="" style="edgeStyle=none;html=1;fontFamily=宋体;labelBackgroundColor=default;" parent="1" source="2" target="3" edge="1">
                    <mxGeometry relative="1" as="geometry"/>
                </mxCell>
                <mxCell id="2" value="&lt;font&gt;开始&lt;/font&gt;" style="rounded=1;whiteSpace=wrap;html=1;fontFamily=宋体;labelBackgroundColor=default;" parent="1" vertex="1">
                    <mxGeometry x="105" y="65" width="50" height="30" as="geometry"/>
                </mxCell>
                <mxCell id="6" value="" style="edgeStyle=none;html=1;labelBackgroundColor=default;fontFamily=宋体;fontSize=12;" parent="1" source="3" target="5" edge="1">
                    <mxGeometry relative="1" as="geometry"/>
                </mxCell>
                <mxCell id="3" value="&lt;font style=&quot;font-size: 12px;&quot;&gt;&lt;span style=&quot;&quot;&gt;根据内存大小计算应初始化多&lt;/span&gt;&lt;span style=&quot;&quot;&gt;少 PDE 和页表&lt;/span&gt;&lt;/font&gt;" style="rounded=1;whiteSpace=wrap;html=1;fontFamily=宋体;labelBackgroundColor=default;align=center;fontStyle=0;horizontal=1;verticalAlign=middle;" parent="1" vertex="1">
                    <mxGeometry y="118" width="260" height="30" as="geometry"/>
                </mxCell>
                <mxCell id="8" value="" style="edgeStyle=none;html=1;labelBackgroundColor=default;fontFamily=宋体;fontSize=12;" parent="1" source="5" target="7" edge="1">
                    <mxGeometry relative="1" as="geometry"/>
                </mxCell>
                <mxCell id="5" value="初始化四个任务的页目录和页表" style="whiteSpace=wrap;html=1;fontFamily=宋体;rounded=1;labelBackgroundColor=default;fontStyle=0;" parent="1" vertex="1">
                    <mxGeometry x="35" y="172" width="190" height="30" as="geometry"/>
                </mxCell>
                <mxCell id="10" value="" style="edgeStyle=none;html=1;labelBackgroundColor=default;fontFamily=宋体;fontSize=12;" parent="1" source="7" target="9" edge="1">
                    <mxGeometry relative="1" as="geometry"/>
                </mxCell>
                <mxCell id="7" value="打开中断" style="whiteSpace=wrap;html=1;fontFamily=宋体;rounded=1;labelBackgroundColor=default;fontStyle=0;" parent="1" vertex="1">
                    <mxGeometry x="95" y="225" width="70" height="30" as="geometry"/>
                </mxCell>
                <mxCell id="12" value="" style="edgeStyle=none;html=1;labelBackgroundColor=default;fontFamily=宋体;fontSize=12;" parent="1" source="9" target="11" edge="1">
                    <mxGeometry relative="1" as="geometry"/>
                </mxCell>
                <mxCell id="9" value="加载TSS, LDT, CR3" style="whiteSpace=wrap;html=1;fontFamily=宋体;rounded=1;labelBackgroundColor=default;fontStyle=0;" parent="1" vertex="1">
                    <mxGeometry x="65" y="278" width="130" height="30" as="geometry"/>
                </mxCell>
                <mxCell id="14" value="" style="edgeStyle=none;html=1;labelBackgroundColor=default;fontFamily=宋体;fontSize=12;" parent="1" source="11" target="13" edge="1">
                    <mxGeometry relative="1" as="geometry"/>
                </mxCell>
                <mxCell id="11" value="通过设置CR0的最高位为1来打开分页" style="whiteSpace=wrap;html=1;fontFamily=宋体;rounded=1;labelBackgroundColor=default;fontStyle=0;" parent="1" vertex="1">
                    <mxGeometry x="20" y="332" width="220" height="30" as="geometry"/>
                </mxCell>
                <mxCell id="13" value="结束" style="rounded=1;whiteSpace=wrap;html=1;labelBackgroundColor=default;fontFamily=宋体;fontSize=12;" parent="1" vertex="1">
                    <mxGeometry x="105" y="385" width="50" height="30" as="geometry"/>
                </mxCell>
            </root>
        </mxGraphModel>
    </diagram>
</mxfile>